<svg width="50" height="50" viewBox="0 0 50 50" fill="none" xmlns="http://www.w3.org/2000/svg">
<path d="M20.8459 33.6367V21.1602H33.4021C37.7967 21.1602 37.5612 29.6354 33.4021 29.6354H29.0859V33.6367C29.0859 37.7184 20.8459 37.9538 20.8459 33.6367Z" fill="url(#paint0_linear_4354_9898)"/>
<path d="M29.085 19.671H20.845C20.845 15.5884 22.4153 13.627 24.8483 13.627C27.2813 13.627 29.085 15.2745 29.085 19.671Z" fill="url(#paint1_linear_4354_9898)"/>
<path d="M19.4339 21.1604V29.4004C15.3513 29.4004 13.3899 27.8301 13.3899 25.3971C13.3899 22.9641 15.0374 21.1604 19.4339 21.1604Z" fill="url(#paint2_linear_4354_9898)"/>
<path d="M25.2417 49.6875C37.096 49.6875 46.9824 41.2617 49.2387 30.0723H39.1301C37.1214 35.8066 31.6618 39.9189 25.2418 39.9189C22.0366 39.9189 19.0709 38.894 16.6544 37.154L12.2636 42.6581L7.49967 38.0214L13.2691 33.7585C11.5447 31.3486 10.5299 28.3963 10.5299 25.207C10.5299 17.0819 17.1166 10.4951 25.2418 10.4951C31.6618 10.4951 37.1214 14.6075 39.1301 20.3417H49.2387C46.9824 9.15233 37.096 0.726562 25.2417 0.726562C11.7215 0.726562 0.76123 11.6868 0.76123 25.207C0.76123 38.7272 11.7215 49.6875 25.2417 49.6875Z" fill="url(#paint3_linear_4354_9898)"/>
<defs>
<linearGradient id="paint0_linear_4354_9898" x1="9.64957" y1="40.6811" x2="53.5631" y2="8.15746" gradientUnits="userSpaceOnUse">
<stop stop-color="#204772"/>
<stop offset="1" stop-color="#70AF9C"/>
</linearGradient>
<linearGradient id="paint1_linear_4354_9898" x1="9.64957" y1="40.6811" x2="53.5631" y2="8.15746" gradientUnits="userSpaceOnUse">
<stop stop-color="#204772"/>
<stop offset="1" stop-color="#70AF9C"/>
</linearGradient>
<linearGradient id="paint2_linear_4354_9898" x1="9.64957" y1="40.6811" x2="53.5631" y2="8.15746" gradientUnits="userSpaceOnUse">
<stop stop-color="#204772"/>
<stop offset="1" stop-color="#70AF9C"/>
</linearGradient>
<linearGradient id="paint3_linear_4354_9898" x1="9.64957" y1="40.6811" x2="53.5631" y2="8.15746" gradientUnits="userSpaceOnUse">
<stop stop-color="#204772"/>
<stop offset="1" stop-color="#70AF9C"/>
</linearGradient>
</defs>
</svg>
